<svg width="35" height="20" viewBox="0 0 35 20" fill="none" xmlns="http://www.w3.org/2000/svg">
<path fill-rule="evenodd" clip-rule="evenodd" d="M9.8993 20C12.9532 20 15.6841 18.6031 17.5 16.4073C19.3159 18.6031 22.0468 20 25.1007 20C30.5678 20 35 15.5229 35 10C35 4.47717 30.5678 0 25.1007 0C22.0468 0 19.3159 1.39694 17.5 3.59276C15.6841 1.39694 12.9532 0 9.8993 0C4.43205 0 0 4.47717 0 10C0 15.5229 4.43205 20 9.8993 20ZM15.0003 11.4087C14.3885 13.6747 12.3364 15.3406 9.8993 15.3406C6.97948 15.3406 4.61252 12.9495 4.61252 10C4.61252 7.05048 6.97948 4.65944 9.8993 4.65944C12.3364 4.65944 14.3885 6.32531 15.0003 8.59133H19.9996C20.6115 6.32531 22.6636 4.65944 25.1007 4.65944C28.0205 4.65944 30.3875 7.05048 30.3875 10C30.3875 12.9495 28.0205 15.3406 25.1007 15.3406C22.6636 15.3406 20.6115 13.6747 19.9996 11.4087H15.0003Z" fill="#ffffff"/>
</svg>
